<svg width="190" height="91" viewBox="0 0 322 91" fill="none" xmlns="http://www.w3.org/2000/svg">
<path d="M0 30.7351L38 54.8411V91L0 66.894V30.7351Z" fill="#004C5E"/>
<path d="M76 30.7351L38 54.8411V91L76 66.894V30.7351Z" fill="#D1AE6C"/>
<path d="M0 30.7351L38 8.43709V26.5166L14.7097 40.3775L0 30.7351Z" fill="#D1AE6C"/>
<path d="M14.7097 40.3775L52.7091 16.2724L75.9944 30.7347L37.3815 55.7547L14.7097 40.3775Z" fill="#363435"/>
<path d="M52.7097 15.6689L76 30.7351L52.7097 45.8013V15.6689Z" fill="#004B60"/>
<path d="M48.4194 25.3113C45.9677 15.6689 45.3548 0 45.3548 0C45.3548 0 57 4.21854 62.5161 8.43709C68.0323 12.6556 67.4194 25.3113 67.4194 25.3113L57.6129 19.2848C57.6129 19.2848 59.4516 24.106 60.6774 28.9272C61.9032 33.7483 62.5161 37.3642 62.5161 37.3642C62.5161 37.3642 50.871 34.9536 48.4194 25.3113Z" fill="#D1AE6C"/>
<path d="M56.5465 63.336C58.0052 58.8831 59.4761 54.4423 60.9471 49.9651C63.1535 48.6668 65.3477 47.3807 67.5542 46.1067C67.5542 46.2523 67.5542 46.41 67.5542 46.5677C67.3826 46.6648 67.1987 46.774 67.0271 46.8711C66.549 47.1501 66.169 47.4535 65.8626 47.8175C65.6665 48.0359 65.5194 48.3149 65.3968 48.6547C65.311 48.8973 65.2742 49.4312 65.2742 50.2563C65.2742 53.8841 65.2742 57.4877 65.2742 61.1277C65.2742 61.9771 65.311 62.4867 65.3968 62.6444C65.4826 62.8143 65.6665 62.8992 65.9361 62.9113C66.2058 62.8992 66.5613 62.7779 67.0271 62.5109C67.1987 62.4139 67.3826 62.3047 67.5542 62.2076C67.5542 62.3532 67.5542 62.5109 67.5542 62.6808C64.7226 64.2703 61.9032 65.8719 59.0839 67.4856C59.0839 67.3279 59.0839 67.1701 59.0839 67.0245C59.2555 66.9275 59.4271 66.8183 59.611 66.7212C60.089 66.4543 60.469 66.1631 60.751 65.8233C60.9594 65.5928 61.1187 65.3137 61.229 64.974C61.3271 64.7192 61.3639 64.1853 61.3639 63.3724C61.3639 59.2956 61.3639 55.2431 61.3639 51.1663C59.28 57.3543 57.2084 63.5423 55.1368 69.7181C55.0387 69.7788 54.9529 69.8273 54.8548 69.8759C52.7465 66.1631 50.6258 62.4624 48.5297 58.7617C48.5297 62.5716 48.5297 66.3815 48.5297 70.2035C48.5297 70.9921 48.5542 71.4775 48.591 71.6595C48.7013 71.9871 48.9219 72.1812 49.2652 72.2419C49.6206 72.2904 50.16 72.1084 50.9077 71.6595C50.9077 71.8172 50.9077 71.9749 50.9077 72.1327C49.0445 73.1883 47.1936 74.2439 45.3548 75.2995C45.3548 75.1417 45.3548 74.9961 45.3548 74.8505C45.4039 74.8141 45.4529 74.7777 45.5142 74.7535C45.8819 74.5472 46.2129 74.3045 46.5194 74.0255C46.8381 73.71 47.071 73.3945 47.2303 73.1155C47.3897 72.8121 47.5123 72.4603 47.5981 72.0235C47.6103 71.9385 47.6226 71.5139 47.6226 70.798C47.6226 67.3521 47.6226 63.9305 47.6226 60.5211C47.6226 59.696 47.5858 59.1985 47.4877 59.0651C47.4019 58.9073 47.2303 58.8224 46.9484 58.8345C46.6787 58.8345 46.3232 58.9559 45.8697 59.2228C45.6981 59.3199 45.5265 59.4291 45.3548 59.5383C45.3548 59.3805 45.3548 59.2349 45.3548 59.0893C47.5613 57.7911 49.7677 56.4928 51.9865 55.2067C53.5065 57.9124 55.0265 60.6181 56.5465 63.336Z" fill="white"/>
<path d="M17.909 62.3532C17.909 64.4644 17.909 66.5635 17.909 68.6868C17.909 69.9365 17.9703 70.7495 18.1052 71.1741C18.2523 71.5867 18.5219 72.0356 18.8897 72.4845C19.2697 72.9456 19.9439 73.5159 20.9368 74.2196C20.9368 74.4259 20.9368 74.6443 20.9368 74.8627C17.2348 72.2297 13.5206 69.5483 9.80645 66.8304C9.80645 66.612 9.80645 66.3936 9.80645 66.1995C10.8116 66.9275 11.5103 67.34 11.8535 67.4128C12.2213 67.4613 12.4787 67.4007 12.6135 67.1823C12.7606 66.976 12.8465 66.248 12.8465 64.9983C12.8465 60.0236 12.8465 55.0368 12.8465 50.0621C12.8465 48.8124 12.7606 47.9752 12.6135 47.5505C12.4787 47.1137 12.2213 46.6527 11.8535 46.1673C11.4858 45.6941 10.8116 45.0753 9.80645 44.2867C9.80645 44.0804 9.80645 43.8741 9.80645 43.68C12.9935 46.1309 16.1684 48.5697 19.3555 50.9843C22.5058 53.3381 24.7613 55.6071 26.1342 57.7668C27.4948 59.9144 28.1935 61.8436 28.1935 63.5665C28.1935 64.9861 27.74 65.9204 26.8574 66.2965C25.9748 66.7212 24.7613 66.5513 23.2045 65.7869C22.1626 65.3259 20.3974 64.1732 17.909 62.3532ZM17.909 51.2027C17.909 54.4908 17.909 57.7789 17.909 61.0671C18.2523 61.334 18.5219 61.5524 18.7058 61.6616C20.0297 62.6323 21.0348 62.972 21.7458 62.6687C22.4568 62.4139 22.8123 61.4068 22.8123 59.7203C22.8123 58.0337 22.4568 56.5535 21.7458 55.2431C21.0348 53.9327 19.9806 52.7679 18.571 51.7001C18.3503 51.5181 18.1297 51.3604 17.909 51.2027Z" fill="white"/>
<path d="M102.801 36.0078V43.3516C102.801 44.7839 102.885 45.6888 103.055 46.0664C103.237 46.431 103.549 46.724 103.992 46.9453C104.448 47.1667 105.275 47.2773 106.473 47.2773V48H93.0156V47.2773C94.2396 47.2773 95.0664 47.1667 95.4961 46.9453C95.9388 46.7109 96.2448 46.4115 96.4141 46.0469C96.5964 45.6823 96.6875 44.7839 96.6875 43.3516V26.1641C96.6875 24.7318 96.5964 23.8333 96.4141 23.4688C96.2448 23.0911 95.9388 22.7917 95.4961 22.5703C95.0534 22.349 94.2266 22.2383 93.0156 22.2383V21.5156H104.559C108.361 21.5156 111.089 22.1927 112.742 23.5469C114.396 24.901 115.223 26.5938 115.223 28.625C115.223 30.3438 114.689 31.8151 113.621 33.0391C112.553 34.263 111.082 35.0964 109.207 35.5391C107.944 35.8516 105.809 36.0078 102.801 36.0078ZM102.801 23.0391V34.4844C103.23 34.5104 103.556 34.5234 103.777 34.5234C105.366 34.5234 106.59 34.0547 107.449 33.1172C108.309 32.1667 108.738 30.7018 108.738 28.7227C108.738 26.7565 108.309 25.3177 107.449 24.4062C106.59 23.4948 105.307 23.0391 103.602 23.0391H102.801ZM129.925 40.4609H120.57L119.456 43.0391C119.092 43.8984 118.909 44.6081 118.909 45.168C118.909 45.9102 119.209 46.457 119.808 46.8086C120.159 47.0169 121.025 47.1732 122.405 47.2773V48H113.597V47.2773C114.547 47.1341 115.329 46.7435 115.941 46.1055C116.553 45.4544 117.308 44.1198 118.206 42.1016L127.679 20.9688H128.05L137.601 42.6875C138.512 44.7448 139.261 46.0404 139.847 46.5742C140.29 46.9779 140.915 47.2122 141.722 47.2773V48H128.909V47.2773H129.437C130.465 47.2773 131.188 47.1341 131.605 46.8477C131.891 46.6393 132.034 46.3398 132.034 45.9492C132.034 45.7148 131.995 45.474 131.917 45.2266C131.891 45.1094 131.696 44.6211 131.331 43.7617L129.925 40.4609ZM129.261 39.0156L125.316 29.8945L121.253 39.0156H129.261ZM168.69 20.9102V30.0898H167.928C167.355 27.694 166.287 25.8581 164.725 24.582C163.162 23.306 161.392 22.668 159.412 22.668C157.759 22.668 156.242 23.1432 154.862 24.0938C153.482 25.0443 152.472 26.2878 151.834 27.8242C151.014 29.7904 150.604 31.9779 150.604 34.3867C150.604 36.7565 150.903 38.918 151.502 40.8711C152.101 42.8112 153.039 44.2826 154.315 45.2852C155.591 46.2747 157.245 46.7695 159.276 46.7695C160.942 46.7695 162.466 46.4049 163.846 45.6758C165.239 44.9466 166.704 43.6901 168.241 41.9062V44.1914C166.756 45.7409 165.207 46.8672 163.592 47.5703C161.991 48.2604 160.116 48.6055 157.967 48.6055C155.142 48.6055 152.629 48.0391 150.428 46.9062C148.241 45.7734 146.548 44.1458 145.35 42.0234C144.165 39.901 143.573 37.6419 143.573 35.2461C143.573 32.7201 144.23 30.3242 145.545 28.0586C146.873 25.793 148.657 24.0352 150.897 22.7852C153.149 21.5352 155.539 20.9102 158.065 20.9102C159.927 20.9102 161.893 21.3138 163.963 22.1211C165.161 22.5898 165.923 22.8242 166.248 22.8242C166.665 22.8242 167.023 22.6745 167.323 22.375C167.635 22.0625 167.837 21.5742 167.928 20.9102H168.69ZM187.357 31.6523L196.673 43.3125C197.989 44.9531 199.121 46.0664 200.072 46.6523C200.762 47.069 201.491 47.2773 202.259 47.2773V48H188.47V47.2773C189.343 47.1992 189.903 47.0625 190.15 46.8672C190.41 46.6719 190.541 46.431 190.541 46.1445C190.541 45.5977 189.942 44.569 188.744 43.0586L182.67 35.4219L181.693 36.2422V43.4688C181.693 44.849 181.771 45.7083 181.927 46.0469C182.084 46.3854 182.383 46.6784 182.826 46.9258C183.268 47.1602 183.978 47.2773 184.955 47.2773V48H171.595V47.2773H172.474C173.242 47.2773 173.861 47.1406 174.33 46.8672C174.668 46.6849 174.929 46.3724 175.111 45.9297C175.254 45.6172 175.326 44.7969 175.326 43.4688V26.0469C175.326 24.6927 175.254 23.8464 175.111 23.5078C174.968 23.1693 174.675 22.8763 174.232 22.6289C173.802 22.3685 173.216 22.2383 172.474 22.2383H171.595V21.5156H184.779V22.2383C183.88 22.2383 183.197 22.3685 182.728 22.6289C182.39 22.8112 182.123 23.1172 181.927 23.5469C181.771 23.8724 181.693 24.7057 181.693 26.0469V34.2891L191.517 26.3398C192.884 25.2331 193.568 24.3477 193.568 23.6836C193.568 23.1888 193.288 22.7982 192.728 22.5117C192.442 22.3685 191.732 22.2773 190.599 22.2383V21.5156H200.931V22.2383C200.007 22.3034 199.278 22.4727 198.744 22.7461C198.223 23.0065 197.012 23.9049 195.111 25.4414L187.357 31.6523ZM220.692 38.9766L227.88 21.5156H238.661V22.2383H237.802C237.02 22.2383 236.395 22.375 235.927 22.6484C235.601 22.8307 235.341 23.1367 235.145 23.5664C235.002 23.8789 234.93 24.6927 234.93 26.0078V43.4688C234.93 44.8229 235.002 45.6693 235.145 46.0078C235.289 46.3464 235.582 46.6458 236.024 46.9062C236.467 47.1536 237.059 47.2773 237.802 47.2773H238.661V48H224.833V47.2773H225.692C226.473 47.2773 227.098 47.1406 227.567 46.8672C227.893 46.6849 228.153 46.3724 228.348 45.9297C228.492 45.6172 228.563 44.7969 228.563 43.4688V23.8398L218.407 48H217.938L207.626 24.0156V42.668C207.626 43.9701 207.658 44.7708 207.723 45.0703C207.893 45.7214 208.257 46.2552 208.817 46.6719C209.39 47.0755 210.282 47.2773 211.493 47.2773V48H202.43V47.2773H202.704C203.29 47.2904 203.837 47.1992 204.345 47.0039C204.852 46.7956 205.236 46.5221 205.497 46.1836C205.757 45.8451 205.959 45.3698 206.102 44.7578C206.128 44.6146 206.141 43.9505 206.141 42.7656V26.0078C206.141 24.6667 206.07 23.8333 205.927 23.5078C205.783 23.1693 205.49 22.8763 205.048 22.6289C204.605 22.3685 204.012 22.2383 203.27 22.2383H202.43V21.5156H213.251L220.692 38.9766ZM255.844 40.4609H246.488L245.375 43.0391C245.01 43.8984 244.828 44.6081 244.828 45.168C244.828 45.9102 245.128 46.457 245.727 46.8086C246.078 47.0169 246.944 47.1732 248.324 47.2773V48H239.516V47.2773C240.466 47.1341 241.247 46.7435 241.859 46.1055C242.471 45.4544 243.227 44.1198 244.125 42.1016L253.598 20.9688H253.969L263.52 42.6875C264.431 44.7448 265.18 46.0404 265.766 46.5742C266.208 46.9779 266.833 47.2122 267.641 47.2773V48H254.828V47.2773H255.355C256.384 47.2773 257.107 47.1341 257.523 46.8477C257.81 46.6393 257.953 46.3398 257.953 45.9492C257.953 45.7148 257.914 45.474 257.836 45.2266C257.81 45.1094 257.615 44.6211 257.25 43.7617L255.844 40.4609ZM255.18 39.0156L251.234 29.8945L247.172 39.0156H255.18ZM290.175 21.5156V28.6836H289.472C289.055 27.0299 288.593 25.8451 288.085 25.1289C287.577 24.3997 286.881 23.8203 285.995 23.3906C285.501 23.1562 284.635 23.0391 283.398 23.0391H281.425V43.4688C281.425 44.8229 281.497 45.6693 281.64 46.0078C281.796 46.3464 282.089 46.6458 282.519 46.9062C282.961 47.1536 283.56 47.2773 284.316 47.2773H285.195V48H271.327V47.2773H272.206C272.974 47.2773 273.593 47.1406 274.062 46.8672C274.4 46.6849 274.667 46.3724 274.863 45.9297C275.006 45.6172 275.077 44.7969 275.077 43.4688V23.0391H273.163C271.379 23.0391 270.084 23.4167 269.277 24.1719C268.144 25.2266 267.428 26.7305 267.128 28.6836H266.386V21.5156H290.175ZM302.319 23.0391V33.8203H302.846C304.526 33.8203 305.743 33.293 306.498 32.2383C307.254 31.1836 307.735 29.6276 307.944 27.5703H308.686V41.4375H307.944C307.788 39.9271 307.455 38.6901 306.948 37.7266C306.453 36.763 305.873 36.1185 305.209 35.793C304.545 35.4544 303.582 35.2852 302.319 35.2852V42.7461C302.319 44.2044 302.377 45.0964 302.495 45.4219C302.625 45.7474 302.859 46.0143 303.198 46.2227C303.536 46.431 304.083 46.5352 304.838 46.5352H306.42C308.894 46.5352 310.873 45.9622 312.358 44.8164C313.855 43.6706 314.929 41.9258 315.58 39.582H316.303L315.112 48H292.221V47.2773H293.1C293.868 47.2773 294.487 47.1406 294.955 46.8672C295.294 46.6849 295.554 46.3724 295.737 45.9297C295.88 45.6172 295.952 44.7969 295.952 43.4688V26.0469C295.952 24.849 295.919 24.1133 295.854 23.8398C295.724 23.3841 295.483 23.0326 295.131 22.7852C294.636 22.4206 293.959 22.2383 293.1 22.2383H292.221V21.5156H314.389V29.3477H313.647C313.269 27.4336 312.735 26.0599 312.045 25.2266C311.368 24.3932 310.405 23.7812 309.155 23.3906C308.426 23.1562 307.058 23.0391 305.053 23.0391H302.319Z" fill="#004B60"/>
<path d="M95.971 66.111H93.539V80H95.971V66.111ZM103.629 80V70.158L110.165 80H112.559V66.111H110.165V75.953L103.648 66.111H101.235V80H103.629ZM122.815 80C126.843 80 129.617 77.169 129.617 73.084C129.617 68.942 126.786 66.111 122.682 66.111H117.818V80H122.815ZM122.454 68.353C125.323 68.353 127.052 70.139 127.052 73.084C127.052 75.972 125.361 77.758 122.587 77.758H120.25V68.353H122.454ZM133.973 74.927C133.973 78.195 136.101 80.228 139.464 80.228C142.846 80.228 144.974 78.176 144.974 74.927V66.111H142.542V74.775C142.542 76.751 141.44 77.872 139.464 77.872C137.488 77.872 136.405 76.77 136.405 74.775V66.111H133.973V74.927ZM149.352 69.987C149.352 72.115 150.587 73.464 152.943 73.977L155.147 74.471C156.287 74.718 156.762 75.269 156.762 76.2C156.762 77.359 155.736 78.062 154.121 78.062C152.563 78.062 151.613 77.359 151.594 76.181H149.162C149.219 78.67 151.157 80.247 154.121 80.247C157.18 80.247 159.194 78.575 159.194 75.991C159.194 73.92 158.035 72.704 155.66 72.191L153.475 71.716C152.316 71.45 151.784 70.899 151.784 69.911C151.784 68.752 152.753 68.03 154.254 68.03C155.622 68.03 156.477 68.733 156.534 69.93H158.966C158.89 67.422 157.104 65.864 154.292 65.864C151.366 65.864 149.352 67.555 149.352 69.987ZM162.178 68.353H166.244V80H168.676V68.353H172.742V66.111H162.178V68.353ZM179.218 80V74.813H182.201L184.557 80H187.217L184.576 74.3C186.21 73.635 187.084 72.305 187.084 70.443C187.084 67.707 185.241 66.111 182.087 66.111H176.786V80H179.218ZM179.218 68.277H182.087C183.626 68.277 184.538 69.056 184.538 70.443C184.538 71.849 183.626 72.666 182.087 72.666H179.218V68.277ZM194.131 66.111H191.699V80H194.131V66.111ZM208.021 80V77.758H201.827V74.072H207.375V71.925H201.827V68.353H208.021V66.111H199.395V80H208.021ZM212.045 69.987C212.045 72.115 213.28 73.464 215.636 73.977L217.84 74.471C218.98 74.718 219.455 75.269 219.455 76.2C219.455 77.359 218.429 78.062 216.814 78.062C215.256 78.062 214.306 77.359 214.287 76.181H211.855C211.912 78.67 213.85 80.247 216.814 80.247C219.873 80.247 221.887 78.575 221.887 75.991C221.887 73.92 220.728 72.704 218.353 72.191L216.168 71.716C215.009 71.45 214.477 70.899 214.477 69.911C214.477 68.752 215.446 68.03 216.947 68.03C218.315 68.03 219.17 68.733 219.227 69.93H221.659C221.583 67.422 219.797 65.864 216.985 65.864C214.059 65.864 212.045 67.555 212.045 69.987ZM236.01 66.111H233.578V80H241.824V77.758H236.01V66.111ZM248.419 66.111H245.987V80H248.419V66.111ZM256.038 80V75.022C256.038 73.293 256.019 71.982 255.886 71.146L259.401 80H261.643L265.177 71.127C265.044 72.115 265.044 72.932 265.044 75.725V80H267.4V66.111H265.006L260.522 77.169L256.038 66.111H253.682V80H256.038ZM275.091 66.111H272.659V80H275.091V66.111ZM279.139 68.353H283.205V80H285.637V68.353H289.703V66.111H279.139V68.353ZM302.373 80V77.758H296.179V74.072H301.727V71.925H296.179V68.353H302.373V66.111H293.747V80H302.373ZM312.192 80C316.22 80 318.994 77.169 318.994 73.084C318.994 68.942 316.163 66.111 312.059 66.111H307.195V80H312.192ZM311.831 68.353C314.7 68.353 316.429 70.139 316.429 73.084C316.429 75.972 314.738 77.758 311.964 77.758H309.627V68.353H311.831Z" fill="black"/>
</svg>
